<?xml version="1.0" standalone="no"?><!DOCTYPE svg PUBLIC "-//W3C//DTD SVG 1.1//EN" "http://www.w3.org/Graphics/SVG/1.1/DTD/svg11.dtd"><svg t="1565161996885" class="icon" viewBox="0 0 1024 1024" version="1.1" xmlns="http://www.w3.org/2000/svg" p-id="18104" xmlns:xlink="http://www.w3.org/1999/xlink" width="200" height="200"><defs><style type="text/css"></style></defs><path d="M258.8 285.9V168.3h506.4v117.6h72.3V168.3c0-40-32.4-72.3-72.3-72.3H258.8c-40 0-72.3 32.4-72.3 72.3v117.6h72.3zM765.2 647.7v208H258.8v-208h-72.3v208c0 40 32.4 72.3 72.3 72.3h506.4c40 0 72.3-32.4 72.3-72.3v-208h-72.3zM259.7 493h65.8l-33.2-93.4zM773.4 385.1c-5.8-1.1-17.5-1.7-35.1-1.7h-23.6v71.4h26.7c19.2 0 32-1.3 38.5-3.9 6.5-2.6 11.6-6.8 15.2-12.4 3.7-5.6 5.5-12.1 5.5-19.6 0-9.1-2.6-16.7-7.7-22.7-5.1-5.8-11.6-9.6-19.5-11.1zM548.5 385.1c-5.8-1.1-17.5-1.7-35.1-1.7h-23.5v71.4h26.7c19.2 0 32-1.3 38.5-3.9 6.5-2.6 11.6-6.8 15.2-12.4 3.7-5.6 5.5-12.1 5.5-19.6 0-9.1-2.6-16.7-7.7-22.7-5.2-5.8-11.7-9.6-19.6-11.1z" p-id="18105" fill="#dbdbdb"></path><path d="M855.7 285.8H168.3c-40 0-72.3 32.4-72.3 72.3v217c0 40 32.4 72.3 72.3 72.3h687.3c40 0 72.3-32.4 72.3-72.3v-217c0.1-39.9-32.3-72.3-72.2-72.3zM362.2 592.6l-21.1-57.2h-96.5l-19.9 57.2H173l94-251.7h51.5l96.7 251.7h-53zM618 457.3c-5.4 10.5-12.2 18.8-20.5 24.8s-16.7 10-25.3 11.9c-11.6 2.4-28.5 3.6-50.6 3.6h-31.8v95h-48.7V340.8h78.2c29.6 0 49 1.3 58 3.8 13.8 3.8 25.4 12 34.7 24.6 9.3 12.6 14 29 14 49 0 15.5-2.7 28.5-8 39.1z m224.9 0c-5.4 10.5-12.2 18.8-20.5 24.8s-16.7 10-25.3 11.9c-11.6 2.4-28.5 3.6-50.6 3.6h-31.8v95H666V340.8h78.2c29.6 0 49 1.3 58 3.8 13.8 3.8 25.4 12 34.7 24.6 9.3 12.6 14 29 14 49 0.1 15.5-2.6 28.5-8 39.1z" p-id="18106" fill="#dbdbdb"></path><path d="M512 756.2m-45.2 0a45.2 45.2 0 1 0 90.4 0 45.2 45.2 0 1 0-90.4 0Z" p-id="18107" fill="#dbdbdb"></path></svg>