<?xml version="1.0" standalone="no"?><!DOCTYPE svg PUBLIC "-//W3C//DTD SVG 1.1//EN" "http://www.w3.org/Graphics/SVG/1.1/DTD/svg11.dtd"><svg t="1565161916533" class="icon" viewBox="0 0 1024 1024" version="1.1" xmlns="http://www.w3.org/2000/svg" p-id="14328" xmlns:xlink="http://www.w3.org/1999/xlink" width="200" height="200"><defs><style type="text/css"></style></defs><path d="M736 32H224C169.6 32 128 73.6 128 128v768c0 54.4 41.6 96 96 96h576c54.4 0 96-41.6 96-96V192c0-89.6-70.4-160-160-160zM304 256h192c19.2 0 32 12.8 32 32s-12.8 32-32 32h-192c-19.2 0-32-12.8-32-32s12.8-32 32-32z m416 512h-416c-19.2 0-32-12.8-32-32s12.8-32 32-32h416c19.2 0 32 12.8 32 32s-12.8 32-32 32z m0-224h-416c-19.2 0-32-12.8-32-32s12.8-32 32-32h416c19.2 0 32 12.8 32 32s-12.8 32-32 32z" p-id="14329" fill="#dbdbdb"></path></svg>